<svg width="550" height="463" xmlns="http://www.w3.org/2000/svg" stroke="null" style="vector-effect: non-scaling-stroke;" preserveAspectRatio="xMidYMid meet" version="1.0">
 <metadata stroke="null" style="vector-effect: non-scaling-stroke;">Created by potrace 1.15, written by Peter Selinger 2001-2017</metadata>

 <g stroke="null">
  <title stroke="null">Layer 1</title>
  <path stroke="null" id="svg_3" d="m268.28091,78.68048l0,9.16081l-3.29618,0.25685c-18.45005,1.45546 -31.67757,3.80987 -45.4616,8.17624c-26.1554,8.26185 -48.07286,20.63323 -68.83451,38.86924l-5.56498,4.88006l-6.63517,-6.33551l-6.67797,-6.37832l-4.70883,5.0941l-4.75164,5.05129l6.46394,6.46394l6.50674,6.42113l-3.21056,3.80987c-28.4242,33.30426 -44.39141,76.45425 -44.47702,120.07512l0,7.14886l-2.22599,0.21404c-1.24142,0.12842 -5.35094,0.47088 -9.118,0.72773c-3.76706,0.25685 -6.89201,0.47088 -6.93482,0.51369c-0.17123,0.21404 0.89896,13.39876 1.113,13.6556c0.12842,0.17123 4.10952,0 8.77554,-0.34246c4.70883,-0.34246 8.77554,-0.5565 9.118,-0.42808c0.29965,0.12842 0.5565,0.85615 0.5565,1.7123c0,2.69687 2.56845,16.78055 4.32356,23.62976c3.4246,13.56999 9.41766,29.36597 15.45352,40.83838c6.67797,12.75664 13.78402,23.2873 24.01502,35.57306c3.51022,4.28075 6.2499,7.87659 5.99305,8.04782c-1.07019,0.72773 -13.39876,11.21557 -13.39876,11.42961c0,0.47088 8.73274,10.44504 9.03239,10.35942c0.17123,-0.08562 7.23447,-5.90744 15.62475,-12.97068c8.43308,-7.06324 15.58194,-13.0563 15.9244,-13.27033c0.47088,-0.38527 -1.58388,-3.03933 -9.97415,-13.0563c-5.77902,-6.93482 -12.02892,-14.72579 -13.86964,-17.33705c-15.9244,-22.38834 -25.5989,-47.1739 -29.45158,-75.55529c-0.94177,-7.19167 -1.113,-30.47896 -0.21404,-37.67063c4.62321,-37.4994 19.9055,-69.81908 45.4616,-96.0601c26.84032,-27.52524 60.18739,-43.92053 99.31347,-48.71497c2.8253,-0.34246 9.54608,-0.5565 17.97916,-0.5565c8.43308,0 15.15387,0.21404 17.97916,0.5565c32.31969,3.9811 59.80212,15.45352 84.75891,35.35902c6.42113,5.1369 18.53566,17.12301 23.67256,23.41572c18.10759,22.25992 29.92246,47.85882 34.71691,75.29845c1.92634,11.12996 2.18318,14.46895 2.18318,29.10912c-0.04281,11.98611 -0.17123,14.85421 -0.98457,20.59042c-2.8253,19.94831 -8.43308,37.75624 -17.25143,54.70802c-6.46394,12.32857 -11.9433,20.16235 -26.06979,37.07132c-8.21905,9.84573 -10.231,12.45699 -9.76012,12.84226c0.34246,0.21404 7.49132,6.20709 15.9244,13.27033c8.39028,7.06324 15.45352,12.88507 15.62475,12.97068c0.29965,0.08562 9.03239,-9.88854 9.03239,-10.35942c0,-0.21404 -12.32857,-10.74469 -13.44156,-11.47242c-0.21404,-0.12842 1.88353,-3.03933 4.70883,-6.42113c8.68993,-10.44504 13.22753,-16.60932 18.23601,-24.74275c10.48785,-17.0802 17.85074,-34.50287 22.64518,-53.63784c1.79792,-7.10605 4.23795,-20.59042 4.23795,-23.24449c0,-0.85615 0.25685,-1.58388 0.5565,-1.7123c0.34246,-0.12842 4.40918,0.08562 9.118,0.42808c4.66602,0.34246 8.64712,0.51369 8.77554,0.34246c0.21404,-0.25685 1.28423,-13.44156 1.113,-13.6556c-0.04281,-0.04281 -3.16776,-0.25685 -6.93482,-0.51369c-3.76706,-0.25685 -7.83378,-0.59931 -9.03239,-0.72773l-2.18318,-0.21404l-0.25685,-10.57346c-0.47088,-19.64866 -3.25337,-35.87271 -9.28923,-54.0231c-7.83378,-23.75818 -18.79251,-43.27841 -35.27341,-62.84146l-2.99653,-3.59583l6.50674,-6.42113l6.46394,-6.46394l-4.75164,-5.05129l-4.70883,-5.0941l-6.67797,6.37832l-6.63517,6.33551l-5.56498,-4.88006c-20.71884,-18.23601 -42.67911,-30.60738 -68.83451,-38.86924c-13.78402,-4.36637 -27.01155,-6.72078 -45.41879,-8.17624l-3.33899,-0.25685l0,-9.16081l0,-9.16081l-6.8492,0l-6.8492,0l0,9.16081z"/>
 </g>
</svg>