<svg width="550" height="463" xmlns="http://www.w3.org/2000/svg" stroke="null" style="vector-effect: non-scaling-stroke;" preserveAspectRatio="xMidYMid meet" version="1.0">
 <metadata stroke="null" style="vector-effect: non-scaling-stroke;">Created by potrace 1.15, written by Peter Selinger 2001-2017</metadata>

 <g stroke="null">
  <title stroke="null">Layer 1</title>
  <path stroke="null" id="svg_2" d="m262.07382,1.71254c-1.1558,0.08562 -4.92287,0.34246 -8.34747,0.59931c-80.05008,5.86463 -154.57799,48.07286 -201.83751,114.33892c-64.42533,90.32389 -67.72151,211.76886 -8.26185,305.30331c35.27341,55.47856 89.55335,96.78783 151.88112,115.62314c39.63977,11.9433 80.64939,14.85421 121.57339,8.56151c32.57653,-5.00848 65.06745,-16.30967 93.32042,-32.49092c52.65326,-30.1365 93.53446,-76.06898 117.03579,-131.41912c37.07132,-87.32736 25.98417,-188.48156 -29.06631,-265.57792c-37.92747,-53.12415 -93.36322,-91.09443 -156.03345,-106.8476c-14.55456,-3.68145 -27.09717,-5.77902 -43.02157,-7.32009c-6.42113,-0.59931 -32.36249,-1.1558 -37.24255,-0.77054zm23.41572,42.12261c33.21864,1.54107 63.22672,9.28923 92.37865,23.80099c23.97222,11.9433 41.86577,24.82837 61.04354,44.00614c18.62128,18.62128 31.806,36.72886 43.14999,59.33124c13.91245,27.61086 21.40377,54.32276 24.27187,86.47121c1.113,12.32857 0.59931,32.83338 -1.1558,46.87425c-5.47936,44.09176 -23.45853,85.2726 -52.39642,120.07512c-5.6934,6.8492 -18.27882,19.60585 -25.29925,25.72733c-33.90356,29.45158 -75.21283,48.50093 -118.74809,54.70802c-12.11453,1.75511 -20.07673,2.2688 -33.60391,2.2688c-37.67063,0 -71.36015,-8.00501 -104.87845,-24.91398c-31.59196,-15.96721 -59.84493,-39.85381 -81.37712,-68.70609c-23.62976,-31.76319 -38.91205,-69.77628 -43.7921,-109.1592c-2.35441,-18.7497 -2.35441,-39.04047 0,-57.79017c4.92287,-39.63977 20.16235,-77.48163 44.13456,-109.58728c6.97763,-9.37485 12.54261,-15.75317 22.34553,-25.51329c10.31661,-10.27381 14.46895,-13.91245 24.65714,-21.575c36.9429,-27.78209 81.76238,-43.92053 127.56644,-46.0181c10.18819,-0.42808 12.02892,-0.42808 21.70342,0z"/>
  <rect id="svg_5" height="36" width="394" y="429.5" x="77" stroke="null"/>
 </g>
</svg>