<svg width="550" height="463" xmlns="http://www.w3.org/2000/svg" stroke="null" style="vector-effect: non-scaling-stroke;" preserveAspectRatio="xMidYMid meet" version="1.0">
 <metadata stroke="null" style="vector-effect: non-scaling-stroke;">Created by potrace 1.15, written by Peter Selinger 2001-2017</metadata>

 <g stroke="null">
  <title stroke="null">Layer 1</title>
  <path stroke="null" id="svg_4" d="m360.10307,192.03482c-7.06324,5.90744 -25.89856,21.6178 -41.86577,34.93095l-29.06631,24.18625l-2.39722,-1.1558c-1.32703,-0.64211 -3.51022,-1.41265 -4.79444,-1.75511c-3.16776,-0.85615 -10.53065,-0.81334 -13.82683,0.04281c-9.80292,2.52564 -17.6367,10.40223 -20.16235,20.20515c-0.89896,3.4246 -0.94177,9.80292 -0.04281,13.56999c0.34246,1.62669 0.51369,3.03933 0.29965,3.16776c-0.21404,0.12842 -6.46394,5.35094 -13.95526,11.55803l-13.56999,11.30119l4.19514,4.32356c2.31161,2.39722 6.67797,6.89201 9.6745,9.97415c2.99653,3.12495 5.56498,5.6934 5.65059,5.6934c0.08562,0 5.60779,-5.99305 12.24295,-13.31314c8.47589,-9.33204 12.28576,-13.22753 12.75664,-13.0563c5.05129,1.58388 11.55803,2.05476 15.88159,1.113c8.26185,-1.84072 15.3679,-7.49132 19.04935,-15.19667c2.22599,-4.58041 2.78249,-7.10605 2.78249,-12.20015c0,-4.40918 -0.5565,-7.4057 -2.01195,-10.65908l-0.98457,-2.31161l0.98457,-1.113c5.17971,-5.60779 71.70261,-79.19393 71.95946,-79.5792c0.17123,-0.29965 0.25685,-0.51369 0.17123,-0.47088c-0.08562,0 -5.90744,4.83725 -12.97068,10.74469z"/>
 </g>
</svg>